<svg width="32" height="32" viewBox="0 0 32 32" fill="none" xmlns="http://www.w3.org/2000/svg">
<path d="M28.1466 25.3355C28.1544 25.3255 28.1621 25.3156 28.1691 25.3051C28.171 25.3023 28.1725 25.2993 28.1743 25.2965C28.1815 25.2853 28.1885 25.2739 28.1948 25.2622C28.196 25.2601 28.1968 25.2579 28.1979 25.2558C28.2044 25.243 28.2107 25.2302 28.2162 25.217C28.2168 25.2155 28.2172 25.214 28.2178 25.2125C28.2234 25.1986 28.2286 25.1845 28.233 25.1701C28.2336 25.1684 28.2338 25.1666 28.2344 25.1649C28.2385 25.1507 28.2423 25.1364 28.2452 25.1218C28.246 25.1177 28.2464 25.1135 28.2471 25.1094C28.2492 25.0971 28.2514 25.0849 28.2526 25.0723C28.2543 25.0554 28.2552 25.0384 28.2552 25.0213V0.510638C28.2552 0.228562 28.0266 0 27.7446 0H4.2552C3.97326 0 3.74463 0.228562 3.74463 0.510638V31.4894C3.74463 31.7714 3.97326 32 4.25527 32H21.2765C21.2936 32 21.3107 31.9991 21.3275 31.9974C21.3402 31.9961 21.3526 31.994 21.3649 31.9918C21.3689 31.9911 21.373 31.9908 21.377 31.9901C21.3916 31.9871 21.4058 31.9833 21.4199 31.9793C21.4217 31.9788 21.4236 31.9784 21.4254 31.9779C21.4395 31.9736 21.4533 31.9685 21.4668 31.963C21.4687 31.9623 21.4705 31.9617 21.4724 31.9611C21.4852 31.9557 21.4976 31.9496 21.5099 31.9433C21.5125 31.9419 21.5151 31.9409 21.5176 31.9395C21.5288 31.9335 21.5396 31.9268 21.5502 31.92C21.5536 31.9179 21.5572 31.916 21.5605 31.9137C21.5705 31.9071 21.5799 31.8998 21.5893 31.8924C21.5931 31.8895 21.597 31.8869 21.6007 31.8839C21.6122 31.8745 21.6232 31.8644 21.6338 31.854C21.635 31.8527 21.6364 31.8518 21.6377 31.8505L28.1058 25.3824C28.1068 25.3814 28.1076 25.3803 28.1086 25.3793C28.1193 25.3684 28.1296 25.3572 28.1393 25.3454C28.1418 25.3422 28.1441 25.3387 28.1466 25.3355ZM4.76591 1.02128H27.234V24.5106H21.2765C20.9945 24.5106 20.7659 24.7392 20.7659 25.0213V30.9787H4.76591V1.02128ZM26.5119 25.5319L21.7872 30.2566V25.5319H26.5119Z" fill="#2D9CDB"/>
<path d="M13.8698 6.46808H23.6595C23.9415 6.46808 24.1701 6.23952 24.1701 5.95745C24.1701 5.67537 23.9415 5.44681 23.6595 5.44681H13.8698C13.5878 5.44681 13.3591 5.67537 13.3591 5.95745C13.3591 6.23952 13.5878 6.46808 13.8698 6.46808Z" fill="#2D9CDB"/>
<path d="M9.34101 7.68027C9.44068 7.77995 9.57141 7.82979 9.70206 7.82979C9.83272 7.82979 9.96344 7.77995 10.0631 7.68027L12.7865 4.95687C12.9859 4.75738 12.9859 4.43411 12.7865 4.23469C12.5871 4.03534 12.2638 4.03534 12.0644 4.23469L9.70206 6.59704L9.04184 5.93682C8.84242 5.73746 8.51908 5.73746 8.31973 5.93682C8.12031 6.13631 8.12031 6.45957 8.31973 6.659L9.34101 7.68027Z" fill="#2D9CDB"/>
<path d="M12.5957 10.7234C12.5957 11.0055 12.8243 11.234 13.1063 11.234H23.6595C23.9415 11.234 24.1702 11.0055 24.1702 10.7234C24.1702 10.4413 23.9415 10.2128 23.6595 10.2128H13.1063C12.8243 10.2128 12.5957 10.4413 12.5957 10.7234Z" fill="#2D9CDB"/>
<path d="M11.0639 8.85106H8.34047C8.05846 8.85106 7.82983 9.07962 7.82983 9.3617V12.0851C7.82983 12.3672 8.05846 12.5957 8.34047 12.5957H11.0639C11.3459 12.5957 11.5745 12.3672 11.5745 12.0851V9.3617C11.5745 9.07962 11.3459 8.85106 11.0639 8.85106ZM10.5532 11.5745H8.85111V9.87234H10.5532V11.5745Z" fill="#2D9CDB"/>
<path d="M23.6595 14.9787H13.1063C12.8243 14.9787 12.5957 15.2073 12.5957 15.4894C12.5957 15.7714 12.8243 16 13.1063 16H23.6595C23.9415 16 24.1702 15.7714 24.1702 15.4894C24.1702 15.2073 23.9415 14.9787 23.6595 14.9787Z" fill="#2D9CDB"/>
<path d="M11.0639 13.617H8.34047C8.05846 13.617 7.82983 13.8456 7.82983 14.1277V16.8511C7.82983 17.1331 8.05846 17.3617 8.34047 17.3617H11.0639C11.3459 17.3617 11.5745 17.1331 11.5745 16.8511V14.1277C11.5745 13.8456 11.3459 13.617 11.0639 13.617ZM10.5532 16.3404H8.85111V14.6383H10.5532V16.3404Z" fill="#2D9CDB"/>
<path d="M23.6595 19.7447H13.1063C12.8243 19.7447 12.5957 19.9732 12.5957 20.2553C12.5957 20.5374 12.8243 20.766 13.1063 20.766H23.6595C23.9415 20.766 24.1702 20.5374 24.1702 20.2553C24.1702 19.9732 23.9415 19.7447 23.6595 19.7447Z" fill="#2D9CDB"/>
<path d="M11.0639 18.383H8.34047C8.05846 18.383 7.82983 18.6115 7.82983 18.8936V21.617C7.82983 21.8991 8.05846 22.1277 8.34047 22.1277H11.0639C11.3459 22.1277 11.5745 21.8991 11.5745 21.617V18.8936C11.5745 18.6115 11.3459 18.383 11.0639 18.383ZM10.5532 21.1064H8.85111V19.4043H10.5532V21.1064Z" fill="#2D9CDB"/>
<path d="M19.234 24.5106H13.1063C12.8243 24.5106 12.5957 24.7392 12.5957 25.0213C12.5957 25.3034 12.8243 25.5319 13.1063 25.5319H19.234C19.516 25.5319 19.7446 25.3034 19.7446 25.0213C19.7446 24.7392 19.516 24.5106 19.234 24.5106Z" fill="#2D9CDB"/>
<path d="M11.0639 23.1489H8.34047C8.05846 23.1489 7.82983 23.3775 7.82983 23.6596V26.383C7.82983 26.6651 8.05846 26.8936 8.34047 26.8936H11.0639C11.3459 26.8936 11.5745 26.6651 11.5745 26.383V23.6596C11.5745 23.3775 11.3459 23.1489 11.0639 23.1489ZM10.5532 25.8723H8.85111V24.1702H10.5532V25.8723Z" fill="#2D9CDB"/>
</svg>
