<svg width="32" height="32" viewBox="0 0 32 32" fill="none" xmlns="http://www.w3.org/2000/svg">
<path d="M15.9934 0C20.4082 0 24.4054 1.79521 27.307 4.68521C30.197 7.58761 31.9922 11.5848 31.9922 15.9996C31.9922 20.4144 30.197 24.4116 27.307 27.314C24.4046 30.204 20.4082 31.9992 15.9934 31.9992C11.5786 31.9992 7.58216 30.204 4.69215 27.314C1.78975 24.4116 0.00616455 20.4152 0.00616455 15.9996C0.00616455 11.5848 1.78898 7.58761 4.69138 4.68521C7.58216 1.79521 11.5786 0 15.9934 0ZM24.1474 15.1264C24.627 15.1264 25.0082 15.52 25.0082 15.9996C25.0082 16.4792 24.627 16.8728 24.1474 16.8728H16.0182H15.9934C15.6734 16.8728 15.3906 16.6884 15.2434 16.4304L15.231 16.418L15.2186 16.3932V16.3808L15.2062 16.356L15.1938 16.3312V16.3188L15.1814 16.294L15.169 16.2816V16.2568L15.1566 16.2321V16.2197L15.1442 16.1949V16.1701V16.1577V16.1453L15.1318 16.1329V16.1081V16.0833V16.0616V16.0492V16.0244V15.9996V5.58321C15.1318 5.10361 15.513 4.7224 15.9926 4.7224C16.4722 4.7224 16.8658 5.10361 16.8658 5.58321V15.1264H24.1474ZM26.0774 5.9156C23.495 3.33319 19.9286 1.7464 15.9934 1.7464C12.0582 1.7464 8.49177 3.33241 5.90936 5.9156C3.33935 8.498 1.74017 12.0644 1.74017 15.9996C1.74017 19.9348 3.33858 23.5012 5.90936 26.0844C8.49177 28.6668 12.0582 30.2536 15.9934 30.2536C19.9286 30.2536 23.495 28.6668 26.0774 26.0844C28.6598 23.502 30.259 19.9356 30.259 15.9996C30.259 12.0644 28.6606 8.498 26.0774 5.9156Z" fill="#2D9CDB"/>
</svg>
