<svg width="32" height="32" viewBox="0 0 32 32" fill="none" xmlns="http://www.w3.org/2000/svg">
<path d="M15.0768 23.6806C14.8361 23.504 14.4974 23.5555 14.3205 23.7964L14.2537 23.8873C14.077 24.1279 14.1285 24.4661 14.3688 24.6432C14.4654 24.7144 14.5779 24.7487 14.6893 24.7487C14.8552 24.7487 15.0188 24.6727 15.1248 24.5291L15.1927 24.4369C15.3695 24.1961 15.3176 23.8575 15.0768 23.6806Z" fill="#2D9CDB"/>
<path d="M15.2178 28.8276L13.8264 26.2975L15.1255 24.5281C15.3024 24.2873 15.2505 23.9487 15.0096 23.7718C14.7688 23.5949 14.4302 23.6468 14.2534 23.8877L12.7497 25.9356C12.625 26.1053 12.6103 26.3319 12.7117 26.5165L14.2697 29.3491V29.349C14.3683 29.5281 14.5534 29.6294 14.7443 29.6294C14.8325 29.6293 14.9219 29.6077 15.0045 29.5623C15.2663 29.4184 15.3618 29.0894 15.2178 28.8276Z" fill="#2D9CDB"/>
<path d="M19.2502 25.9356L17.7527 23.8961C17.6285 23.727 17.4181 23.6449 17.2122 23.6856C17.0064 23.726 16.8426 23.8819 16.7917 24.0854C16.7526 24.2416 16.7852 24.407 16.8805 24.5368L18.1732 26.2976L16.7913 28.8105C16.7474 28.8903 16.7244 28.9803 16.7244 29.0715C16.7244 29.3184 16.8916 29.5341 17.1308 29.5955C17.1756 29.6071 17.2208 29.6126 17.2654 29.6126C17.4591 29.6126 17.6427 29.5081 17.7395 29.3323L19.2881 26.5167C19.3897 26.332 19.3748 26.1054 19.2502 25.9356Z" fill="#2D9CDB"/>
<path d="M20.1077 17.4333C19.9297 17.3399 19.7146 17.3526 19.549 17.4667C19.2272 17.6884 18.9286 17.9233 18.6615 18.1647C17.2055 19.481 15.8222 19.3029 15.768 19.2951C15.7353 19.29 15.7022 19.2876 15.6693 19.2887C15.0939 19.3034 14.0564 18.7776 12.9588 17.9156C12.791 17.7838 12.6188 17.6582 12.447 17.5422C12.2812 17.4302 12.067 17.4189 11.8904 17.5128C11.7137 17.6067 11.6033 17.7904 11.6033 17.9905V19.8465C11.6033 20.0107 11.678 20.1658 11.806 20.2685C11.8211 20.2807 11.8368 20.292 11.8531 20.3024L15.6894 22.8659C15.69 22.8662 15.6906 22.8667 15.6912 22.8672L15.7013 22.8739C15.7917 22.9337 15.8957 22.9639 16.0002 22.9639C16.088 22.9639 16.1759 22.9426 16.2562 22.8996C16.2732 22.8906 16.2894 22.8806 16.305 22.87C16.3068 22.8688 16.3087 22.8676 16.3105 22.8664C16.3127 22.865 16.3148 22.8636 16.3169 22.8621L20.1442 20.3047C20.1595 20.2949 20.1745 20.2844 20.189 20.2732C20.3203 20.1707 20.397 20.0134 20.397 19.8467V17.9123C20.397 17.7112 20.2857 17.5269 20.1077 17.4333ZM19.3149 19.5572L16.0001 21.7722L12.6853 19.5571V19.065C13.4925 19.6516 14.6798 20.371 15.6476 20.371C15.6496 20.371 15.6518 20.371 15.6539 20.371C15.9788 20.4069 17.6359 20.5046 19.315 19.0316V19.5572H19.3149Z" fill="#2D9CDB"/>
<path d="M16.5336 22.334C16.498 22.1194 16.3371 21.9471 16.1255 21.8966C15.9138 21.8464 15.6926 21.9274 15.5639 22.1027L14.3203 23.7965C14.1434 24.0374 14.1953 24.376 14.4363 24.5529C14.5327 24.6237 14.6448 24.6579 14.756 24.6579C14.9224 24.6579 15.0865 24.5813 15.1926 24.4369L16.4297 22.752C16.5001 22.66 16.5411 22.5455 16.5411 22.4231C16.541 22.3934 16.5385 22.3634 16.5336 22.334Z" fill="#2D9CDB"/>
<path d="M24.2426 4.89201C24.2318 4.80726 23.9784 2.97813 22.2566 2.25656C22.3066 1.93531 22.3014 1.52244 22.0974 1.12075C21.8233 0.580873 21.2824 0.22906 20.4896 0.0749342C20.4556 0.0683092 20.4211 0.0649967 20.3864 0.0649967H13.1247C10.176 0.0649967 7.7771 2.46388 7.7771 5.41263V8.26208C7.7771 9.00445 8.03016 9.72839 8.48954 10.3004C8.71729 10.584 8.99779 11.0793 9.0401 11.8282C9.0566 12.1206 9.30135 12.3465 9.59554 12.3384C9.88829 12.3301 10.1213 12.0904 10.1213 11.7976V8.08258C10.4887 6.56326 11.7425 6.26757 11.958 6.22763H14.3069C14.5832 6.22763 14.8549 6.18545 15.1146 6.1022C15.5612 5.95895 16.2698 5.69532 16.7857 5.49938C17.1308 5.3682 17.5129 5.36338 17.8615 5.48588L20.3761 6.36864C21.6333 6.83239 21.8576 7.93601 21.8854 8.10939V12.568C21.8854 12.8511 22.1038 13.0861 22.3861 13.1072C22.3999 13.1082 22.4134 13.1087 22.4269 13.1087C22.6923 13.1087 22.9214 12.9142 22.9616 12.6478C22.9637 12.6338 23.1797 11.2384 23.8763 10.1211C24.1187 9.73221 24.2469 9.28877 24.2469 8.83877V4.96032C24.2469 4.93751 24.2454 4.91469 24.2426 4.89201ZM23.1648 8.83852C23.1648 9.0802 23.0966 9.31995 22.9674 9.53314V8.07239C22.9674 8.05283 22.9664 8.03339 22.9643 8.01395C22.9558 7.93539 22.7322 6.08126 20.7456 5.35151C20.7432 5.35063 20.7407 5.34976 20.7383 5.34888L18.2199 4.46476C17.9359 4.36507 17.6389 4.31532 17.342 4.31532C17.0227 4.31532 16.7037 4.37288 16.4014 4.48788C15.6791 4.76226 15.1198 4.96419 14.7841 5.07182C14.6314 5.12076 14.4709 5.14563 14.3069 5.14563H11.9143C11.8911 5.14563 11.8679 5.14713 11.8448 5.15007C11.7532 5.16195 9.59529 5.46882 9.05223 7.90289C9.0436 7.94158 9.03923 7.98108 9.03923 8.0207V9.1342C8.92141 8.86195 8.85904 8.56458 8.85904 8.26214V5.41276C8.85904 3.06075 10.7726 1.14719 13.1245 1.14719H20.3317C20.6301 1.21075 20.9928 1.34119 21.1303 1.60656C21.2988 1.93138 21.1069 2.37863 21.1067 2.379C21.0375 2.52619 21.0383 2.69663 21.1086 2.84319C21.179 2.98975 21.3116 3.09688 21.4698 3.13494C22.8471 3.4665 23.1281 4.78757 23.1647 5.00126V8.83852H23.1648Z" fill="#2D9CDB"/>
<path d="M22.9644 8.01395C22.9559 7.93539 22.7323 6.08126 20.7458 5.35151C20.7433 5.35063 20.7409 5.34976 20.7385 5.34888L18.22 4.46475C17.6306 4.25788 16.9849 4.26613 16.4014 4.48776C15.6792 4.76213 15.1199 4.96407 14.7842 5.07176C14.6315 5.12069 14.4709 5.14551 14.3069 5.14551H11.9144C11.8912 5.14551 11.8679 5.14701 11.8449 5.14994C11.7533 5.16182 9.59537 5.46869 9.05231 7.90276C9.04368 7.94145 9.03931 7.98095 9.03931 8.02057V12.6716C9.03931 12.6756 9.03937 12.6796 9.03943 12.6836C9.04299 12.8451 9.15731 16.6606 11.7936 18.4055L11.8072 18.4152C11.8185 18.4232 11.8298 18.4312 11.8416 18.4391C11.9919 18.5406 12.1429 18.6508 12.2905 18.7667C13.0585 19.3697 14.5058 20.371 15.6476 20.371C15.6497 20.371 15.6517 20.371 15.6539 20.371C15.7159 20.3778 15.8266 20.387 15.9767 20.387C16.6238 20.387 18.0043 20.2174 19.387 18.9674C19.6191 18.7577 19.88 18.5526 20.1629 18.3577L20.2033 18.3294C20.2165 18.3201 20.2297 18.3107 20.2433 18.3016C21.1227 17.711 22.6457 16.187 22.9655 12.6161C22.9669 12.6001 22.9677 12.5839 22.9677 12.5678V8.07239C22.9676 8.05289 22.9665 8.03345 22.9644 8.01395ZM21.8855 12.5433C21.5906 15.766 20.2176 17.0153 19.64 17.4032C19.6195 17.417 19.5992 17.4313 19.579 17.4455L19.549 17.4667C19.2271 17.6883 18.9285 17.9232 18.6614 18.1647C17.2108 19.476 15.832 19.304 15.7644 19.2945C15.7329 19.2898 15.7011 19.2878 15.6693 19.2887C15.0938 19.3035 14.0563 18.7777 12.9588 17.9157C12.7909 17.7838 12.6188 17.6582 12.4471 17.5423L12.4338 17.533C12.4208 17.5237 12.4079 17.5145 12.3926 17.5044C10.2652 16.0963 10.1261 12.8013 10.1214 12.6638V8.08251C10.4901 6.55763 11.7516 6.26532 11.9573 6.22757H14.307C14.5833 6.22757 14.855 6.18538 15.1147 6.10213C15.5613 5.95888 16.27 5.69526 16.7858 5.49932C17.1309 5.36813 17.513 5.36332 17.8616 5.48582L20.3762 6.36857C21.6333 6.83232 21.8577 7.93595 21.8855 8.10932V12.5433H21.8855Z" fill="#2D9CDB"/>
<path d="M16.4839 22.1812C16.3996 22.0125 16.2336 21.9 16.0457 21.884C15.8582 21.8685 15.6754 21.9509 15.5638 22.1029L14.2678 23.868C14.0911 24.1088 14.1427 24.4472 14.3833 24.6241C14.4798 24.6951 14.5921 24.7294 14.7034 24.7294C14.8694 24.7294 15.0333 24.6532 15.1394 24.5093L16.4354 22.7507C16.504 22.6577 16.541 22.5388 16.541 22.4233C16.5411 22.3394 16.5214 22.2564 16.4839 22.1812Z" fill="#2D9CDB"/>
<path d="M16.5186 30.8923C16.3153 30.6797 15.9795 30.6684 15.7625 30.867L15.6388 30.9801C15.4536 31.1494 15.4092 31.4239 15.5316 31.6431L15.5354 31.6499C15.618 31.7979 15.7654 31.8987 15.9333 31.922C15.9582 31.9254 15.9831 31.9271 16.0078 31.9271C16.1503 31.9271 16.2882 31.8708 16.3904 31.7686L16.5102 31.6487C16.7181 31.4408 16.7219 31.1048 16.5186 30.8923Z" fill="#2D9CDB"/>
<path d="M16.3612 30.9801L16.2375 30.867C16.0205 30.6685 15.6846 30.6798 15.4814 30.8923C15.278 31.1049 15.2818 31.441 15.4898 31.6489L15.6098 31.7688C15.712 31.871 15.8499 31.9272 15.9923 31.9272C16.0177 31.9272 16.0433 31.9255 16.0689 31.9218C16.2374 31.8977 16.3847 31.7957 16.4667 31.6464L16.4705 31.6396C16.5904 31.4209 16.5452 31.1484 16.3612 30.9801Z" fill="#2D9CDB"/>
<path d="M16.3704 30.9886L16.3697 30.9879C16.2862 30.9098 16.1781 30.8583 16.0591 30.8453C15.8996 30.8279 15.7443 30.8819 15.6314 30.9871L15.6297 30.9886C15.5204 31.0883 15.4567 31.2286 15.4535 31.3766C15.4503 31.5247 15.5079 31.6676 15.6129 31.7719L15.6186 31.7776C15.7241 31.8826 15.8621 31.935 16.0001 31.935C16.1386 31.935 16.277 31.8821 16.3826 31.7766L16.3882 31.7709C16.4927 31.6664 16.55 31.5237 16.5466 31.3759C16.5433 31.2281 16.4796 31.0882 16.3704 30.9886Z" fill="#2D9CDB"/>
<path d="M16.1755 21.8994C15.9514 21.8276 15.7056 21.9108 15.5691 22.1027C15.4165 22.3175 15.4417 22.6104 15.6276 22.7972C15.7323 22.9023 15.8711 22.9562 16.0111 22.9562C16.1198 22.9562 16.229 22.9237 16.3233 22.8573C16.4673 22.756 16.5529 22.591 16.5529 22.4149V22.4135C16.5529 22.1781 16.3998 21.9709 16.1755 21.8994Z" fill="#2D9CDB"/>
<path d="M16.4397 22.0982L16.4351 22.092C16.2962 21.9041 16.0525 21.8267 15.8307 21.8998C15.6089 21.9729 15.459 22.1801 15.459 22.4136V22.4229C15.459 22.622 15.5708 22.8036 15.7463 22.8979C15.8258 22.9405 15.9135 22.9616 16.0012 22.9616C16.1069 22.9616 16.2124 22.931 16.3032 22.8709C16.4269 22.789 16.5116 22.6599 16.5374 22.5138C16.5632 22.3678 16.5279 22.2175 16.4397 22.0982Z" fill="#2D9CDB"/>
<path d="M22.4364 20.3986C22.3804 20.2504 22.2622 20.1343 22.113 20.0809L20.0386 19.3373C20.0218 19.3313 20.0044 19.3259 19.987 19.3217C19.8389 19.2846 19.682 19.3118 19.5552 19.3967L15.7115 21.965C15.7105 21.9657 15.7094 21.9664 15.7083 21.9672L16.0102 22.4159L15.7016 21.9717C15.5888 22.0463 15.5081 22.1606 15.4753 22.2917C15.4573 22.3637 15.4544 22.4389 15.4666 22.5121C15.4805 22.5957 15.5139 22.675 15.5642 22.7434L18.3782 26.576C18.4805 26.7154 18.6427 26.7969 18.8142 26.7969C18.826 26.7969 18.8378 26.7964 18.8496 26.7956C19.0339 26.7835 19.1994 26.6784 19.2884 26.5164L22.4044 20.8509C22.4809 20.712 22.4925 20.5467 22.4364 20.3986ZM18.7487 25.2523L16.7709 22.5585L19.9298 20.4477L21.1506 20.8854L18.7487 25.2523Z" fill="#2D9CDB"/>
<path d="M16.533 22.3297C16.5076 22.1844 16.424 22.0559 16.3015 21.9737L12.4451 19.3967C12.3223 19.3146 12.171 19.2865 12.0268 19.3185C12.0047 19.3234 11.983 19.3297 11.9617 19.3374L9.88722 20.081C9.7381 20.1344 9.61991 20.2505 9.56385 20.3987C9.50778 20.5469 9.51941 20.7121 9.59578 20.851L12.7119 26.5165C12.8009 26.6784 12.9663 26.7836 13.1506 26.7957C13.1624 26.7964 13.1742 26.7968 13.1859 26.7968C13.3574 26.7968 13.5196 26.7153 13.622 26.5759L15.1257 24.5281C15.1269 24.5265 15.128 24.5248 15.1292 24.5231L16.4362 22.743C16.5234 22.6242 16.5584 22.4749 16.533 22.3297ZM14.2535 23.8874C14.2522 23.8892 14.251 23.8909 14.2497 23.8927L13.2514 25.2524L10.8495 20.8854L12.0704 20.4478L15.2292 22.5586L14.2535 23.8874Z" fill="#2D9CDB"/>
<path d="M31.9732 29.6347L31.2752 25.4202C31.0553 24.092 30.1322 22.9823 28.8662 22.5244L22.1141 20.0815C21.9059 20.0063 21.6732 20.0653 21.5261 20.2304C21.379 20.3956 21.3471 20.6337 21.4459 20.8318L22.8556 23.6589L21.4723 23.6802C21.2845 23.6832 21.1116 23.7832 21.0156 23.9447C20.9196 24.1062 20.9143 24.3058 21.0014 24.4722L21.5688 25.5555L15.7623 30.8672C15.7564 30.8727 15.7506 30.8782 15.7449 30.8839L15.625 31.0037C15.4552 31.1736 15.4176 31.4351 15.5329 31.6459L15.5372 31.6536C15.6321 31.827 15.8141 31.9349 16.0119 31.9349H30.0226C30.6047 31.9349 31.1543 31.6804 31.5306 31.2365C31.907 30.7926 32.0683 30.2087 31.9732 29.6347ZM30.7055 30.5367C30.535 30.7377 30.2861 30.8529 30.0227 30.8529H17.381L22.6067 26.0727C22.788 25.907 22.8348 25.64 22.7208 25.4225L22.3678 24.7485L23.732 24.7275C23.9179 24.7247 24.0892 24.6265 24.1859 24.4677C24.2825 24.3088 24.2908 24.1115 24.2078 23.9451L23.018 21.5591L28.4984 23.5418C29.3968 23.8668 30.0519 24.6543 30.208 25.5969L30.9059 29.8114C30.9059 29.8115 30.9059 29.8115 30.9059 29.8115C30.9489 30.0714 30.8759 30.3357 30.7055 30.5367Z" fill="#2D9CDB"/>
<path d="M16.375 30.9929L16.3687 30.9872C16.1546 30.7933 15.8257 30.8019 15.622 31.0068L15.6163 31.0125C15.4623 31.1675 15.4166 31.4 15.5005 31.6018C15.5844 31.8036 15.7815 31.935 16 31.935H16.0119C16.2356 31.935 16.4363 31.7973 16.5166 31.5886C16.5972 31.3798 16.5409 31.143 16.375 30.9929Z" fill="#2D9CDB"/>
<path d="M16.3579 30.9772C16.2351 30.8667 16.0685 30.8182 15.9054 30.8461C15.7425 30.8736 15.6011 30.9743 15.5216 31.1192L15.5179 31.126C15.4038 31.3339 15.4385 31.5919 15.6034 31.7624L15.6054 31.7644C15.7114 31.874 15.8526 31.9293 15.9942 31.9293C16.1245 31.9293 16.2552 31.8824 16.3587 31.7878L16.3644 31.7827C16.4135 31.7379 16.454 31.6843 16.4838 31.6248C16.5927 31.4071 16.5388 31.14 16.3579 30.9772Z" fill="#2D9CDB"/>
<path d="M16.3814 31.0103L16.3792 31.008C16.3777 31.0066 16.3762 31.0051 16.3749 31.0037L16.2549 30.8838C16.2492 30.8781 16.2434 30.8726 16.2375 30.8673L10.4311 25.5556L10.9985 24.4722C11.0857 24.3059 11.0803 24.1062 10.9843 23.9447C10.8883 23.7832 10.7155 23.6832 10.5277 23.6802L9.14422 23.6589L10.554 20.8318C10.6527 20.6338 10.6208 20.3956 10.4738 20.2304C10.3267 20.0652 10.0937 20.0062 9.88578 20.0815L3.13371 22.5244C1.8677 22.9822 0.944577 24.0919 0.724639 25.4202L0.0267001 29.6347C-0.0683626 30.209 0.0930127 30.7928 0.469388 31.2366C0.845827 31.6804 1.39551 31.9349 1.97739 31.9349H16C16.2192 31.9349 16.4166 31.8028 16.5001 31.6003C16.5837 31.3978 16.5368 31.1648 16.3814 31.0103ZM1.97745 30.8529C1.71395 30.8529 1.46508 30.7377 1.2947 30.5367C1.12433 30.3358 1.05133 30.0714 1.09433 29.8114L1.79227 25.5969C1.94833 24.6542 2.60339 23.8668 3.50183 23.5418L8.98215 21.5591L7.7924 23.945C7.7094 24.1114 7.71765 24.3087 7.81434 24.4676C7.9109 24.6265 8.08234 24.7246 8.26828 24.7274L9.6324 24.7485L9.2794 25.4224C9.16547 25.6399 9.21234 25.9069 9.39347 26.0726L14.6192 30.8529H1.97745Z" fill="#2D9CDB"/>
<path d="M17.8417 24.3474C17.8807 24.1911 17.8482 24.0257 17.7529 23.8959L16.4362 22.1028C16.2979 21.9143 16.0539 21.8394 15.8317 21.9122C15.7118 21.9515 15.613 22.0309 15.5472 22.1324L14.2547 23.8862C14.2362 23.9112 14.2197 23.938 14.2058 23.9659C14.1172 24.1431 14.1325 24.3545 14.2457 24.517L14.7961 25.3075L14.2097 29.0036C14.1909 29.1222 14.2122 29.2437 14.27 29.3491L15.5262 31.6329C15.6212 31.8058 15.803 31.9132 16.0002 31.9132C16.1975 31.9132 16.3792 31.8058 16.4743 31.6329L17.7398 29.3321C17.7837 29.2522 17.8067 29.1626 17.8067 29.0714V29.0711C17.8067 29.0427 17.8044 29.0144 17.8 28.9863L17.2164 25.3076L17.7609 24.5258C17.7982 24.4717 17.8258 24.4111 17.8417 24.3474ZM16.0002 30.2496L15.3074 28.99L15.8989 25.2619C15.9209 25.1238 15.8884 24.9827 15.8085 24.868L15.3552 24.2169L16.0018 23.3395L16.6518 24.2247L16.2039 24.868C16.124 24.9826 16.0916 25.1238 16.1135 25.2619L16.7023 28.973L16.0002 30.2496Z" fill="#2D9CDB"/>
</svg>
