<svg width="32" height="32" viewBox="0 0 32 32" fill="none" xmlns="http://www.w3.org/2000/svg">
<path d="M2.6668 12.8C2.80856 12.8008 2.94481 12.7452 3.04546 12.6453L5.1788 10.512C5.38793 10.3029 5.38793 9.9638 5.1788 9.75467C4.96967 9.54553 4.6306 9.54553 4.42147 9.75467L2.28813 11.888C2.18716 11.9881 2.13037 12.1245 2.13037 12.2667C2.13037 12.4089 2.18716 12.5452 2.28813 12.6453C2.38878 12.7452 2.52504 12.8008 2.6668 12.8Z" fill="#2D9CDB"/>
<path d="M2.6668 16C2.80856 16.0008 2.94481 15.9452 3.04546 15.8453L8.37879 10.512C8.58792 10.3029 8.58792 9.9638 8.37879 9.75467C8.16966 9.54553 7.83059 9.54553 7.62146 9.75467L2.28813 15.088C2.18716 15.1882 2.13037 15.3245 2.13037 15.4667C2.13037 15.6089 2.18716 15.7452 2.28813 15.8453C2.38878 15.9452 2.52503 16.0008 2.6668 16Z" fill="#2D9CDB"/>
<path d="M30.4 0H16.5333C15.6497 0 14.9333 0.716344 14.9333 1.6V7.46667H2.66667C1.19391 7.46667 0 8.66057 0 10.1333V24C0 25.4728 1.19391 26.6667 2.66667 26.6667H8.53333V28.8H6.93333C6.04968 28.8 5.33333 29.5163 5.33333 30.4C5.33333 31.2837 6.04968 32 6.93333 32H30.4C31.2837 32 32 31.2837 32 30.4V1.6C32 0.716344 31.2837 0 30.4 0ZM2.66667 8.53333H21.8667C22.7503 8.53333 23.4667 9.24968 23.4667 10.1333V22.9333H1.06667V10.1333C1.06667 9.24968 1.78301 8.53333 2.66667 8.53333ZM1.06667 24H23.4667C23.4667 24.8837 22.7503 25.6 21.8667 25.6H2.66667C1.78301 25.6 1.06667 24.8837 1.06667 24ZM9.6 26.6667H14.9333V28.8H9.6V26.6667ZM16.5333 30.9333H6.93333C6.63878 30.9333 6.4 30.6946 6.4 30.4C6.4 30.1054 6.63878 29.8667 6.93333 29.8667H17.6C17.8946 29.8667 18.1333 30.1054 18.1333 30.4C18.1333 30.6946 17.8946 30.9333 17.6 30.9333H16.5333ZM30.9333 30.4C30.9333 30.6946 30.6946 30.9333 30.4 30.9333H19.104C19.2769 30.4444 19.202 29.9019 18.9032 29.4781C18.6044 29.0542 18.1186 28.8015 17.6 28.8H16V26.6667H21.8667C23.3394 26.6667 24.5333 25.4728 24.5333 24V10.1333C24.5333 8.66057 23.3394 7.46667 21.8667 7.46667H16V1.6C16 1.30545 16.2388 1.06667 16.5333 1.06667H30.4C30.6946 1.06667 30.9333 1.30545 30.9333 1.6V30.4Z" fill="#2D9CDB"/>
<path d="M28.8 2.66667H18.1333C17.5442 2.66667 17.0667 3.14423 17.0667 3.73333V4.8C17.0667 5.3891 17.5442 5.86667 18.1333 5.86667H28.8C29.3891 5.86667 29.8667 5.3891 29.8667 4.8V3.73333C29.8667 3.14423 29.3891 2.66667 28.8 2.66667ZM18.1333 4.8V3.73333H28.8V4.8H18.1333Z" fill="#2D9CDB"/>
<path d="M27.7333 10.6667C28.617 10.6667 29.3333 9.95033 29.3333 9.06667C29.3333 8.18301 28.617 7.46667 27.7333 7.46667C26.8496 7.46667 26.1333 8.18301 26.1333 9.06667C26.1333 9.95033 26.8496 10.6667 27.7333 10.6667ZM27.7333 8.53334C28.0278 8.53334 28.2666 8.77212 28.2666 9.06667C28.2666 9.36122 28.0278 9.60001 27.7333 9.60001C27.4387 9.60001 27.2 9.36122 27.2 9.06667C27.2 8.77212 27.4387 8.53334 27.7333 8.53334Z" fill="#2D9CDB"/>
<path d="M29.3333 13.3333C29.3333 12.4497 28.617 11.7333 27.7333 11.7333C26.8496 11.7333 26.1333 12.4497 26.1333 13.3333C26.1333 14.217 26.8496 14.9333 27.7333 14.9333C28.617 14.9333 29.3333 14.217 29.3333 13.3333ZM27.7333 13.8667C27.4387 13.8667 27.2 13.6279 27.2 13.3333C27.2 13.0388 27.4387 12.8 27.7333 12.8C28.0278 12.8 28.2666 13.0388 28.2666 13.3333C28.2666 13.6279 28.0278 13.8667 27.7333 13.8667Z" fill="#2D9CDB"/>
<path d="M20.7999 27.7333C20.5054 27.7333 20.2666 27.9721 20.2666 28.2667V29.3333C20.2666 29.6279 20.5054 29.8667 20.7999 29.8667C21.0945 29.8667 21.3333 29.6279 21.3333 29.3333V28.2667C21.3333 27.9721 21.0945 27.7333 20.7999 27.7333Z" fill="#2D9CDB"/>
<path d="M22.9332 27.7333C22.6387 27.7333 22.3999 27.9721 22.3999 28.2667V29.3333C22.3999 29.6279 22.6387 29.8667 22.9332 29.8667C23.2278 29.8667 23.4666 29.6279 23.4666 29.3333V28.2667C23.4666 27.9721 23.2278 27.7333 22.9332 27.7333Z" fill="#2D9CDB"/>
<path d="M25.0668 27.7333C24.7722 27.7333 24.5334 27.9721 24.5334 28.2667V29.3333C24.5334 29.6279 24.7722 29.8667 25.0668 29.8667C25.3613 29.8667 25.6001 29.6279 25.6001 29.3333V28.2667C25.6001 27.9721 25.3613 27.7333 25.0668 27.7333Z" fill="#2D9CDB"/>
<path d="M27.1998 27.7333C26.9053 27.7333 26.6665 27.9721 26.6665 28.2667V29.3333C26.6665 29.6279 26.9053 29.8667 27.1998 29.8667C27.4944 29.8667 27.7332 29.6279 27.7332 29.3333V28.2667C27.7332 27.9721 27.4944 27.7333 27.1998 27.7333Z" fill="#2D9CDB"/>
<path d="M29.3334 27.7333C29.0388 27.7333 28.8 27.9721 28.8 28.2667V29.3333C28.8 29.6279 29.0388 29.8667 29.3334 29.8667C29.6279 29.8667 29.8667 29.6279 29.8667 29.3333V28.2667C29.8667 27.9721 29.6279 27.7333 29.3334 27.7333Z" fill="#2D9CDB"/>
</svg>
