<svg width="60" height="60" viewBox="0 0 60 60" fill="none" xmlns="http://www.w3.org/2000/svg">
<path d="M7.49996 0H39.3618L56.2499 16.8226V56.25C56.2499 58.3218 54.57 60 52.4999 60H7.49996C5.42991 60 3.75 58.3218 3.75 56.25V3.74996C3.75 1.67816 5.4301 0 7.49996 0Z" fill="#E2574C"/>
<path d="M56.1956 16.8751H43.125C41.0549 16.8751 39.375 15.1952 39.375 13.1251V0.0375977L56.1956 16.8751Z" fill="#B53629"/>
<path d="M42.1837 28.4306C42.8119 28.4306 43.1194 27.8831 43.1194 27.3525C43.1194 26.8031 42.7987 26.2725 42.1837 26.2725H38.6062C37.9068 26.2725 37.5168 26.8518 37.5168 27.4912V36.283C37.5168 37.0668 37.963 37.5018 38.5668 37.5018C39.1669 37.5018 39.615 37.0668 39.615 36.283V33.87H41.7788C42.45 33.87 42.7857 33.3205 42.7857 32.775C42.7857 32.2407 42.45 31.7099 41.7788 31.7099H39.615V28.4306H42.1837ZM30.0918 26.2725H27.4742C26.7636 26.2725 26.2592 26.76 26.2592 27.4836V36.2906C26.2592 37.1887 26.9848 37.47 27.5041 37.47H30.2511C33.5022 37.47 35.6491 35.3307 35.6491 32.0287C35.6474 28.5375 33.6262 26.2725 30.0918 26.2725ZM30.2175 35.2988H28.6218V28.4438H30.06C32.2369 28.4438 33.1837 29.9045 33.1837 31.92C33.1837 33.8063 32.2536 35.2988 30.2175 35.2988ZM20.6287 26.2725H18.0356C17.3024 26.2725 16.8937 26.7561 16.8937 27.4912V36.283C16.8937 37.0668 17.3624 37.5018 17.9923 37.5018C18.6223 37.5018 19.091 37.0668 19.091 36.283V33.7161H20.7166C22.7228 33.7161 24.3785 32.2948 24.3785 30.0092C24.3787 27.7725 22.7812 26.2725 20.6287 26.2725ZM20.5856 31.6538H19.0912V28.3369H20.5856C21.5081 28.3369 22.095 29.0569 22.095 29.9962C22.0931 30.9339 21.5081 31.6538 20.5856 31.6538Z" fill="white"/>
</svg>
